<?xml version="1.0" encoding="UTF-8" standalone="no"?>
<svg
   xmlns:dc="http://purl.org/dc/elements/1.1/"
   xmlns:cc="http://creativecommons.org/ns#"
   xmlns:rdf="http://www.w3.org/1999/02/22-rdf-syntax-ns#"
   xmlns:svg="http://www.w3.org/2000/svg"
   xmlns="http://www.w3.org/2000/svg"
   xmlns:sodipodi="http://sodipodi.sourceforge.net/DTD/sodipodi-0.dtd"
   xmlns:inkscape="http://www.inkscape.org/namespaces/inkscape"
   width="67.715675mm"
   height="67.710365mm"
   viewBox="0 0 67.715676 67.710365"
   version="1.1"
   id="svg8"
   inkscape:version="1.0.2 (e86c8708, 2021-01-15)"
   sodipodi:docname="art.svg">
  <defs
     id="defs2" />
  <sodipodi:namedview
     id="base"
     pagecolor="#ffffff"
     bordercolor="#666666"
     borderopacity="1.0"
     inkscape:pageopacity="0.0"
     inkscape:pageshadow="2"
     inkscape:zoom="0.35"
     inkscape:cx="629.93261"
     inkscape:cy="-69.877787"
     inkscape:document-units="mm"
     inkscape:current-layer="layer1"
     inkscape:document-rotation="0"
     showgrid="false"
     inkscape:window-width="1252"
     inkscape:window-height="847"
     inkscape:window-x="0"
     inkscape:window-y="25"
     inkscape:window-maximized="0" />
  <metadata
     id="metadata5">
    <rdf:RDF>
      <cc:Work
         rdf:about="">
        <dc:format>image/svg+xml</dc:format>
        <dc:type
           rdf:resource="http://purl.org/dc/dcmitype/StillImage" />
        <dc:title></dc:title>
      </cc:Work>
    </rdf:RDF>
  </metadata>
  <g
     inkscape:label="Layer 1"
     inkscape:groupmode="layer"
     id="layer1"
     transform="translate(60.836333,-166.65517)">
    <path
       style="fill:#000000;stroke-width:0.176389"
       d="m -59.707635,234.20369 c -0.58876,-0.24097 -0.99492,-0.82603 -1.09585,-1.57852 -0.0861,-0.642 -0.0328,-0.77732 0.52648,-1.33661 l 0.62228,-0.62228 h 13.84038 c 13.60908,0 13.84793,0.006 14.29237,0.35553 0.67403,0.5302 0.91044,1.4043 0.58831,2.17526 -0.51363,1.22927 0.18585,1.17462 -14.87459,1.16219 -7.45063,-0.006 -13.70536,-0.0761 -13.89938,-0.15557 z m 50.7999898,0 c -0.19403,-0.0794 -0.51153,-0.32079 -0.70555,-0.5364 -0.34253,-0.38061 -0.35419,-0.67591 -0.4012098,-10.16318 l -0.0484,-9.77116 -2.6856,1.7e-4 -2.6856,1.8e-4 -0.58607,1.30353 c -0.32234,0.71694 -1.04194,2.00669 -1.59912,2.86612 -5.25235,8.10164 -14.72116,12.17435 -24.1368,10.38169 -8.30805,-1.58174 -15.29596,-7.75192 -17.93318,-15.83456 -3.14201,-9.62974 0.47139,-20.55779 8.70525,-26.3274 l 1.40911,-0.98739 0.0489,-8.71603 0.0489,-8.71602 0.45816,-0.45804 c 0.28573,-0.28566 0.73196,-0.49477 1.18569,-0.55563 0.65773,-0.0882 0.78727,-0.0379 1.34984,0.5247 l 0.62228,0.62229 v 7.69056 c 0,4.2298 0.0669,7.69055 0.14878,7.69055 0.0818,0 0.61753,-0.16127 1.19045,-0.35839 2.16072,-0.7434 4.43887,-1.0986 7.03924,-1.09753 1.3582,5.3e-4 3.02507,0.10047 3.70417,0.22202 0.6791,0.12155 1.37827,0.23062 1.55371,0.24238 0.23907,0.016 1.47727,-1.87917 4.94145,-7.56334 4.38529,-7.19559 4.65625,-7.5958 5.28135,-7.80065 0.51987,-0.17037 0.79816,-0.17032 1.31884,2.6e-4 0.6264,0.20522 0.8841,0.58563 5.07118,7.4861 l 4.41125,7.26991 8.1636498,0.006 c 8.96202,0.006 9.11307,0.0228 9.63991,1.04155 0.34653,0.67012 0.3491,1.13412 0.01,1.79008 -0.49623,0.95961 -0.49702,0.95971 -8.2112,1.0548 l -7.1547,0.0882 5.8016,9.525 c 9.43636,15.49251 9.83071,16.15873 9.83071,16.6085 0,0.2368 -0.12434,0.67098 -0.2763,0.96485 -0.50715,0.98072 -0.88999,1.03568 -7.21457004,1.03568 H -6.3498252 v 9.71902 9.71903 l -0.59972,0.59972 c -0.61242,0.61242 -1.20132,0.74264 -1.95792,0.43297 z m -24.2534698,-9.70297 c 5.46455,-1.19619 10.33163,-4.79565 12.96667,-9.58953 l 0.64765,-1.17824 h -14.13296 c -11.81544,0 -14.23135,-0.0411 -14.73295,-0.25069 -0.64182,-0.26817 -1.15257,-1.04378 -1.15257,-1.75024 0,-0.45663 0.1408,-0.69471 9.5095,-16.07893 l 6.01538,-9.87778 -0.75098,-0.1429 c -0.41305,-0.0786 -1.90193,-0.10572 -3.30863,-0.0603 -2.74003,0.0885 -4.32702,0.41051 -6.52639,1.32414 l -1.14652,0.47627 -0.0882,6.05112 -0.0882,6.05111 -0.59829,0.53437 c -0.51533,0.46028 -0.69637,0.52121 -1.30573,0.43948 -0.43354,-0.0582 -0.88484,-0.27217 -1.1656,-0.55277 l -0.45816,-0.45787 -0.0521,-4.85376 -0.0521,-4.85376 -0.95388,0.81492 c -1.24485,1.06351 -2.71319,2.87077 -3.79548,4.67152 -2.72376,4.53192 -3.46609,10.17812 -2.01344,15.31438 0.54267,1.91877 2.08559,5.05041 3.23482,6.56568 1.09505,1.44384 3.15562,3.41464 4.58519,4.38544 2.44265,1.65877 5.98286,3.00243 8.83659,3.35384 1.76754,0.21766 4.68429,0.0677 6.52639,-0.33553 z m 15.06171,-14.95701 c 0.65063,-2.17292 0.57744,-6.75401 -0.14998,-9.38653 -0.56754,-2.05392 -1.71473,-4.51183 -2.91865,-6.25336 -1.06144,-1.53542 -3.49849,-3.94469 -5.06897,-5.01119 -0.98718,-0.67038 -3.93179,-2.20775 -4.02481,-2.10134 -0.029,0.0332 -13.63893,22.39615 -13.95429,22.92881 -0.0431,0.0728 5.79476,0.13229 12.97297,0.13229 12.27701,0 13.05679,-0.0183 13.14373,-0.30868 z m 8.08027,-3.83279 0.0532,-4.14147 0.45815,-0.45781 c 0.28559,-0.28538 0.73219,-0.49458 1.1857,-0.5554 0.65773,-0.0882 0.78727,-0.0379 1.34983,0.5247 l 0.62229,0.62228 v 4.07459 4.07458 h 3.97872 3.97872 l -0.28775,-0.48507 c -0.15827,-0.26679 -3.47755,-5.72382 -7.37619,-12.12673 l -7.08844,-11.64167 -4.40774,-0.0882 c -4.69015,-0.0938 -4.93311,-0.1391 -5.39661,-1.00515 -0.27696,-0.51751 -0.27696,-1.35275 0,-1.87026 0.44437,-0.83032 0.79504,-0.91334 4.11978,-0.97534 1.72199,-0.0321 3.1309,-0.10296 3.1309,-0.15746 0,-0.163 -5.54496,-9.22096 -5.64475,-9.22096 -0.0748,0 -6.68742,10.7355 -6.83389,11.09469 -0.0238,0.0583 0.63027,0.45 1.45344,0.87045 7.2537,3.70494 12.03374,10.79461 12.79526,18.97769 0.17353,1.86482 0.0331,4.91372 -0.28473,6.1799 l -0.11246,0.4481 h 2.12672 2.12673 z"
       id="path847" />
  </g>
</svg>
