<?xml version="1.0" encoding="UTF-8" standalone="no"?>
<svg
   xmlns:dc="http://purl.org/dc/elements/1.1/"
   xmlns:cc="http://creativecommons.org/ns#"
   xmlns:rdf="http://www.w3.org/1999/02/22-rdf-syntax-ns#"
   xmlns:svg="http://www.w3.org/2000/svg"
   xmlns="http://www.w3.org/2000/svg"
   xmlns:sodipodi="http://sodipodi.sourceforge.net/DTD/sodipodi-0.dtd"
   xmlns:inkscape="http://www.inkscape.org/namespaces/inkscape"
   width="68.791656mm"
   height="90.311111mm"
   viewBox="0 0 68.791656 90.311112"
   version="1.1"
   id="svg8"
   inkscape:version="1.0.2 (e86c8708, 2021-01-15)"
   sodipodi:docname="art.svg">
  <defs
     id="defs2" />
  <sodipodi:namedview
     id="base"
     pagecolor="#ffffff"
     bordercolor="#666666"
     borderopacity="1.0"
     inkscape:pageopacity="0.0"
     inkscape:pageshadow="2"
     inkscape:zoom="0.35"
     inkscape:cx="393.52381"
     inkscape:cy="-12.857109"
     inkscape:document-units="mm"
     inkscape:current-layer="layer1"
     inkscape:document-rotation="0"
     showgrid="false"
     inkscape:window-width="1252"
     inkscape:window-height="847"
     inkscape:window-x="0"
     inkscape:window-y="25"
     inkscape:window-maximized="0" />
  <metadata
     id="metadata5">
    <rdf:RDF>
      <cc:Work
         rdf:about="">
        <dc:format>image/svg+xml</dc:format>
        <dc:type
           rdf:resource="http://purl.org/dc/dcmitype/StillImage" />
        <dc:title></dc:title>
      </cc:Work>
    </rdf:RDF>
  </metadata>
  <g
     inkscape:label="Layer 1"
     inkscape:groupmode="layer"
     id="layer1"
     transform="translate(-1.7134933,-151.56844)">
    <path
       style="fill:#000000;stroke-width:0.176389"
       d="m 1.7134933,201.3983 v -40.48125 h 1.32291 1.32292 v 39.15834 39.15833 h 13.8465297 13.84653 v 1.32291 1.32292 H 16.882933 1.7134933 Z m 33.1611097,39.15833 v -1.32291 h 1.23472 1.23472 v 1.32291 1.32292 h -1.23472 -1.23472 z m 5.29166,0 v -1.32291 h 5.90903 5.90903 v -7.9375 -7.9375 h 7.9375 7.9375 V 188.7865 154.21428 h -31.75 -31.7499997 v 2.02847 2.02847 h -1.32292 -1.32291 v -3.35139 -3.35139 h 34.3958297 34.39583 v 36.82188 36.82187 l -8.33506,8.33368 -8.33506,8.33368 h -6.83439 -6.83438 z m 20.19653,-8.90763 5.64238,-5.64445 h -5.68751 -5.68751 v 5.64445 c 0,3.10444 0.0203,5.64444 0.0451,5.64444 0.0248,0 2.5842,-2.54 5.68751,-5.64444 z m -38.99874,-2.02585 c -3.10245,-0.675 -5.61987,-2.54143 -6.91719,-5.12848 -0.72058,-1.43694 -0.96105,-2.8349 -0.86292,-5.01651 0.0936,-2.08171 0.46206,-3.53408 1.32618,-5.22789 l 0.36895,-0.72321 -0.44793,-0.41993 c -0.68898,-0.64592 -1.91994,-2.5902 -2.41674,-3.8172 -1.53641,-3.79462 -1.44035,-8.93663 0.25679,-13.74569 1.5702,-4.44937 4.4566,-8.6265 7.77473,-11.25144 1.19164,-0.94269 1.44697,-1.25189 2.08275,-2.52213 2.33057,-4.65634 6.56619,-8.17358 12.0511,-10.00717 1.80437,-0.6032 4.41718,-1.14506 5.5214,-1.14506 0.32685,0 0.59426,-0.0821 0.59426,-0.18247 0,-0.45648 -2.45285,-2.60705 -3.66536,-3.21364 -1.69179,-0.84637 -2.90707,-1.0786 -5.06589,-0.96806 -4.01246,0.20545 -8.09428,2.44712 -12.17999,6.68905 -1.5036,1.56109 -4.57721,5.38559 -5.14826,6.406 -0.15798,0.2823 -0.27428,0.2429 -1.26104,-0.4272 -0.69128,-0.46944 -1.04121,-0.81494 -0.96119,-0.94905 0.0692,-0.11598 0.63839,-0.92525 1.26487,-1.79838 3.54836,-4.94535 7.73336,-8.79198 11.76252,-10.81147 2.57374,-1.29001 4.57494,-1.7926 7.15633,-1.79727 4.41556,-0.008 8.31599,2.18051 10.66296,5.98289 0.62791,1.01731 0.65156,1.03414 1.6229,1.1555 4.19181,0.52373 8.25178,2.66343 10.51165,5.53989 3.72514,4.74151 4.08868,11.02965 1.07778,18.64234 -0.78551,1.98606 -0.79359,2.02743 -0.54121,2.77081 1.23658,3.64224 1.04733,8.1323 -0.50064,11.87785 -0.3556,0.86045 -0.68581,1.68543 -0.73378,1.83328 -0.0577,0.1778 0.85688,1.15519 2.70105,2.88659 1.53355,1.43978 2.81261,2.68168 2.84236,2.75978 0.0298,0.0781 -0.28429,0.57934 -0.69787,1.11387 l -0.75198,0.97186 -0.74912,-0.64907 c -0.41202,-0.35699 -1.69023,-1.53687 -2.84047,-2.62196 l -2.09136,-1.97288 -0.90028,1.18049 c -1.2757,1.67276 -4.40962,4.67396 -6.52052,6.24438 -5.64238,4.19768 -12.48929,7.39231 -17.87499,8.34011 -1.81401,0.31923 -4.98599,0.31996 -6.44985,0.001 z m 8.04249,-3.05642 c 4.57719,-1.21545 10.23023,-4.05595 14.78466,-7.42888 1.75424,-1.29916 5.55981,-5.01863 6.30827,-6.16554 l 0.50458,-0.77322 -0.56902,-0.47503 c -0.8379,-0.69951 -3.38693,-2.18427 -4.72972,-2.75496 -1.3444,-0.57138 -0.89765,-0.71064 -3.95155,1.23182 -2.56002,1.62834 -8.13359,4.35844 -10.63721,5.21044 -3.20821,1.09178 -4.51203,1.30244 -7.42537,1.19974 -2.56103,-0.0903 -4.03741,-0.40946 -5.62151,-1.21532 l -0.66534,-0.33847 -0.34679,0.80904 c -0.7371,1.71957 -0.92111,2.70469 -0.85232,4.56292 0.0568,1.53535 0.13835,1.93489 0.57817,2.83386 0.91829,1.87692 2.55831,3.13967 4.82194,3.71272 1.72255,0.43607 5.331,0.24683 7.80121,-0.40912 z m -1.52869,-12.92375 c 1.78248,-0.45428 4.20519,-1.35348 6.44132,-2.39072 1.88343,-0.87365 6.72904,-3.59326 6.72904,-3.77669 0,-0.23923 -2.64727,-0.56459 -5.30377,-0.65186 -6.71262,-0.22052 -11.67955,1.28462 -15.55765,4.71449 -1.11824,0.989 -1.30135,1.34007 -0.83039,1.59212 1.68672,0.9027 5.97802,1.16088 8.52145,0.51266 z m -7.4908,-5.61924 c 2.49457,-1.68246 5.49496,-2.87155 8.75491,-3.46967 1.36019,-0.24956 2.63185,-0.32334 5.55625,-0.32236 3.92015,0.001 5.42145,0.17343 8.16779,0.93633 l 1.20043,0.33347 1.5605,-1.20603 c 0.85827,-0.66332 2.28776,-1.89812 3.17665,-2.74401 1.59894,-1.5216 3.88629,-4.34472 3.88629,-4.79657 0,-0.79638 -2.9731,-4.80163 -4.80868,-6.4781 -1.09952,-1.0042 -4.21663,-3.43058 -4.4072,-3.43058 -0.0555,0 -0.41889,0.57951 -0.80762,1.2878 -1.61371,2.94026 -4.59859,6.29854 -7.75599,8.72625 -4.57046,3.5142 -8.50662,3.78733 -11.46927,0.79585 -1.88588,-1.90422 -2.72788,-4.30373 -2.75113,-7.84012 -0.0168,-2.55705 0.0663,-2.52472 -1.49652,-0.58199 -2.25271,2.80029 -3.73202,5.74874 -4.64289,9.25388 -0.4554,1.75247 -0.52968,2.36447 -0.54593,4.49791 -0.0255,3.35044 0.5435,5.39721 2.08374,7.49544 l 0.61863,0.84274 1.27858,-1.27146 c 0.70323,-0.6993 1.78388,-1.61225 2.40146,-2.02878 z m 32.67,0.42088 c 0.78452,-1.96961 1.09779,-3.88883 1.00983,-6.18671 -0.0421,-1.09955 -0.1299,-2.05254 -0.19513,-2.11778 -0.0652,-0.0652 -0.29405,0.1118 -0.50849,0.3934 -0.74199,0.97435 -3.66921,3.86771 -4.97934,4.92172 -0.72352,0.58208 -1.32033,1.09802 -1.32624,1.14652 -0.006,0.0485 0.56703,0.38479 1.2732,0.74728 0.70616,0.3625 1.87661,1.05366 2.60098,1.53591 0.72437,0.48226 1.38905,0.8562 1.47705,0.83098 0.088,-0.0252 0.37967,-0.59731 0.64814,-1.27132 z m -22.37626,-12.02403 c 2.27685,-1.06681 5.89622,-4.24047 7.92385,-6.94803 1.09548,-1.46282 2.44357,-3.64443 2.44357,-3.9544 0,-0.23612 -2.23426,-1.30765 -3.82513,-1.8345 -4.02791,-1.33391 -8.55515,-1.07101 -12.06469,0.70059 -1.19055,0.60099 -1.30427,0.7924 -1.67236,2.81475 -0.80185,4.40547 0.648,8.64471 3.29886,9.64557 0.99061,0.37402 2.55648,0.20361 3.8959,-0.42398 z m 24.01369,-4.3268 c 0.92872,-2.947 1.06613,-3.79136 1.06927,-6.57049 0.003,-2.44728 -0.034,-2.7516 -0.4901,-4.05525 -0.68654,-1.96238 -1.48215,-3.18775 -3.01534,-4.64413 -0.98449,-0.93517 -1.73183,-1.45249 -2.95653,-2.04655 -1.47279,-0.7144 -4.07479,-1.52378 -4.26221,-1.3258 -0.0402,0.0425 0.0444,0.63291 0.18814,1.31201 0.49534,2.34056 0.14559,6.8601 -0.71662,9.26042 -0.0655,0.18232 0.34382,0.5662 1.31652,1.23472 2.85489,1.96211 6.13347,5.16837 7.6013,7.43361 0.3053,0.47117 0.61177,0.85667 0.68104,0.85667 0.0693,0 0.3323,-0.65485 0.58453,-1.45521 z m -12.26289,-10.28652 c 0.3998,-1.37034 0.38324,-6.39659 -0.0254,-7.71935 l -0.31774,-1.02843 -1.35796,0.11807 c -4.52525,0.39348 -8.69966,2.05695 -11.88411,4.73571 -1.09315,0.91956 -2.86841,2.91732 -2.72227,3.06346 0.0306,0.0306 0.72217,-0.10794 1.53678,-0.30793 4.04751,-0.99368 8.99155,-0.39788 13.12276,1.5814 0.58208,0.27888 1.13388,0.48907 1.22622,0.4671 0.0923,-0.022 0.28212,-0.43149 0.42174,-0.91003 z m 20.13606,-18.33258 v -1.32291 h 1.32292 1.32292 v 1.32291 1.32292 h -1.32292 -1.32292 z m 0,-5.29166 v -1.32292 h 1.32292 1.32292 v 1.32292 1.32291 h -1.32292 -1.32292 z"
       id="path847" />
  </g>
</svg>
