<?xml version="1.0" encoding="UTF-8" standalone="no"?>
<svg
   xmlns:dc="http://purl.org/dc/elements/1.1/"
   xmlns:cc="http://creativecommons.org/ns#"
   xmlns:rdf="http://www.w3.org/1999/02/22-rdf-syntax-ns#"
   xmlns:svg="http://www.w3.org/2000/svg"
   xmlns="http://www.w3.org/2000/svg"
   xmlns:sodipodi="http://sodipodi.sourceforge.net/DTD/sodipodi-0.dtd"
   xmlns:inkscape="http://www.inkscape.org/namespaces/inkscape"
   width="53.42152mm"
   height="50.57592mm"
   viewBox="0 0 53.42152 50.57592"
   version="1.1"
   id="svg8"
   inkscape:version="1.0.2 (e86c8708, 2021-01-15)"
   sodipodi:docname="art.svg">
  <defs
     id="defs2" />
  <sodipodi:namedview
     id="base"
     pagecolor="#ffffff"
     bordercolor="#666666"
     borderopacity="1.0"
     inkscape:pageopacity="0.0"
     inkscape:pageshadow="2"
     inkscape:zoom="0.35"
     inkscape:cx="680.54302"
     inkscape:cy="-14.131648"
     inkscape:document-units="mm"
     inkscape:current-layer="layer1"
     inkscape:document-rotation="0"
     showgrid="false"
     inkscape:window-width="1252"
     inkscape:window-height="847"
     inkscape:window-x="0"
     inkscape:window-y="25"
     inkscape:window-maximized="0" />
  <metadata
     id="metadata5">
    <rdf:RDF>
      <cc:Work
         rdf:about="">
        <dc:format>image/svg+xml</dc:format>
        <dc:type
           rdf:resource="http://purl.org/dc/dcmitype/StillImage" />
        <dc:title></dc:title>
      </cc:Work>
    </rdf:RDF>
  </metadata>
  <g
     inkscape:label="Layer 1"
     inkscape:groupmode="layer"
     id="layer1"
     transform="translate(74.227008,-151.90567)">
    <path
       style="fill:#000000;stroke-width:0.176389"
       d="m -70.182395,202.13463 c -2.058444,-1.25522 -1.276992,-6.86157 1.831088,-13.13672 0.726868,-1.46754 1.295537,-2.70793 1.263708,-2.75644 -0.03183,-0.0485 -0.699361,-0.3362 -1.483403,-0.63932 -3.608468,-1.39505 -5.380644,-2.65631 -5.634628,-4.01016 -0.06093,-0.32478 0.01227,-0.97134 0.170163,-1.50301 0.476036,-1.60299 2.495406,-3.41632 7.99986,-7.18362 1.260673,-0.86281 2.293694,-1.60844 2.295602,-1.65695 0.0019,-0.0485 -0.821705,-0.35324 -1.830251,-0.67719 -3.246559,-1.04281 -4.859307,-2.29809 -4.859307,-3.78224 0,-0.90687 0.370267,-1.56347 1.179084,-2.09086 0.739624,-0.48227 2.55595,-1.25821 3.694577,-1.57834 l 0.728523,-0.20483 -0.423862,-1.04313 c -1.224875,-3.01443 -1.146361,-5.14661 0.212312,-5.76567 1.014022,-0.46202 1.66902,-0.27036 5.216582,1.52643 1.878635,0.9515 4.63497,2.2636 6.12519,2.91578 2.280583,0.99807 2.755256,1.15046 2.998611,0.96262 0.159016,-0.12274 0.765371,-0.63114 1.347454,-1.12978 3.509449,-3.00637 8.809589,-6.75894 10.974154,-7.76985 1.677827,-0.78359 2.601386,-0.89965 3.36184,-0.42248 1.097906,0.68893 1.157625,1.88662 0.189285,3.7963 -0.29672,0.58516 -1.840824,3.05427 -3.431344,5.4869 -1.590518,2.43263 -2.891852,4.49768 -2.891852,4.589 0,0.0913 0.423173,0.41914 0.940384,0.7285 0.517213,0.30936 1.271275,0.92144 1.675694,1.36019 0.638574,0.69277 0.735311,0.90347 0.735311,1.60161 0,0.4511 -0.128162,0.9995 -0.292038,1.24961 -0.339489,0.51812 -1.642729,1.22256 -2.590846,1.40043 l -0.658541,0.12355 1.403031,1.30344 c 1.626476,1.51103 2.663091,3.0517 3.273929,4.8659 l 0.432779,1.28536 5.477647,0.0466 c 3.01271,0.0256 5.47765,-0.009 5.47765,-0.0772 0,-0.0681 -0.71438,-0.8523 -1.5875,-1.74264 -0.93022,-0.94857 -1.5875,-1.76485 -1.5875,-1.97155 0,-0.61883 0.66932,-1.28227 1.29363,-1.28227 0.4921,0 0.92444,0.36248 3.45618,2.8977 2.5262,2.52969 2.89371,2.96893 2.89371,3.45846 0,0.4904 -0.36466,0.92355 -2.90636,3.4523 -2.51057,2.49776 -2.98124,2.89154 -3.45618,2.89154 -0.61145,0 -1.28098,-0.67021 -1.28098,-1.28227 0,-0.2067 0.65728,-1.02299 1.5875,-1.97155 0.87312,-0.89034 1.5875,-1.6734 1.5875,-1.74013 0,-0.0667 -5.64224,-0.12133 -12.538309,-0.12133 -7.871672,0 -12.516427,0.0626 -12.479514,0.16813 0.03234,0.0925 0.641066,1.01284 1.352728,2.04527 l 1.293933,1.87714 0.646345,-0.11893 c 0.998274,-0.18369 2.175295,-0.75802 2.807806,-1.37009 1.055689,-1.02156 2.407011,-0.63579 2.407011,0.68715 0,0.54054 -0.124541,0.75839 -0.751734,1.31498 -0.711729,0.6316 -1.601946,1.14087 -2.733479,1.56375 -0.430609,0.16093 -0.470969,0.22854 -0.276384,0.463 0.378986,0.45665 1.521356,0.95432 2.190574,0.95432 0.807191,0 2.203476,-0.70656 2.802041,-1.41791 0.665369,-0.79075 1.258782,-1.87991 1.59862,-2.93414 0.161777,-0.50185 0.413081,-1.01118 0.558456,-1.13183 0.392961,-0.32612 1.248255,-0.26555 1.672581,0.11846 1.247669,1.12913 -1.272604,5.75527 -3.940836,7.2337 -0.849073,0.47046 -1.072014,0.51297 -2.6897,0.51297 -1.626438,0 -1.837674,-0.0409 -2.710758,-0.52443 -0.520778,-0.28845 -1.361818,-0.98298 -1.868978,-1.54341 l -0.92211,-1.01896 h -1.407679 c -0.774222,0 -2.274744,-0.0925 -3.334492,-0.20546 -1.05975,-0.11301 -2.119224,-0.21223 -2.354388,-0.22049 -0.354423,-0.0125 -0.769129,0.45271 -2.424052,2.719 -3.117933,4.26978 -4.761731,6.29352 -6.671454,8.21347 -2.42987,2.44289 -3.792719,3.02991 -5.134614,2.21164 z m 2.963906,-3.67823 c 0.680072,-0.65484 1.763761,-1.82107 2.408196,-2.59162 1.379555,-1.64953 5.680351,-7.37832 5.599699,-7.45897 -0.134757,-0.13476 -4.969919,-1.2814 -5.135491,-1.21787 -0.296502,0.11378 -1.974584,3.26263 -2.748913,5.15822 -1.176024,2.87896 -2.125449,7.30086 -1.567566,7.30086 0.114169,0 0.764002,-0.53578 1.444075,-1.19062 z m 15.540703,-13.18059 c -0.563582,-0.82216 -1.064382,-1.49506 -1.112889,-1.49534 -0.04851,-3.5e-4 -0.502398,0.62827 -1.008645,1.39677 l -0.920452,1.39727 0.744063,0.0672 c 0.409233,0.037 1.324236,0.0811 2.033339,0.0981 l 1.289278,0.0308 z m -4.602662,-1.04636 c 0.651494,-0.96005 1.149819,-1.80172 1.107389,-1.87037 -0.04243,-0.0686 -0.58538,-0.17689 -1.20656,-0.24054 -0.621178,-0.0636 -1.714816,-0.27256 -2.430306,-0.46427 l -1.300889,-0.34856 -0.502001,0.5717 c -0.934813,1.0646 -2.235182,2.8322 -2.14783,2.91955 0.139461,0.13946 4.740006,1.24649 5.031081,1.21063 0.145521,-0.0179 0.797624,-0.81809 1.449116,-1.77814 z m -8.983836,-0.5097 c 0.04826,-0.12576 0.684994,-0.9927 1.414965,-1.92653 1.286898,-1.64628 1.317079,-1.70705 0.993384,-1.99999 -0.535372,-0.4845 -1.223629,-2.03081 -1.223629,-2.74913 0,-0.42454 0.24755,-1.1398 0.691215,-1.99717 l 0.691214,-1.33573 -1.970034,1.35478 c -4.561159,3.1367 -7.09546,5.32711 -6.963648,6.0187 0.06886,0.36132 2.024052,1.38478 4.288059,2.24464 1.790743,0.68011 1.955442,0.71105 2.078474,0.39043 z m 21.469442,-3.83216 c 0,-0.34697 -1.048879,-2.48912 -1.945963,-3.97428 l -0.905074,-1.4984 -1.749481,2.6588 c -0.962216,1.46234 -1.749482,2.73426 -1.749482,2.82647 0,0.0998 1.28597,0.16768 3.175,0.16768 2.044552,0 3.175,-0.0642 3.175,-0.18027 z m 4.810739,0.0732 c 0.183275,-0.18327 -0.730832,-2.03547 -1.490553,-3.02021 -0.621967,-0.80619 -2.944315,-2.77548 -3.09517,-2.62462 -0.02828,0.0283 0.340531,0.79823 0.819571,1.71101 0.751382,1.43172 1.169785,2.37468 1.656003,3.73218 0.08664,0.24188 0.315332,0.30868 1.056837,0.30868 0.520451,0 0.994442,-0.0482 1.053312,-0.10704 z m -16.757237,-0.81901 c -0.186824,-0.31529 -0.447613,-0.74502 -0.579535,-0.95495 l -0.239857,-0.38168 -0.765284,0.62709 c -0.420906,0.3449 -0.722171,0.6702 -0.669477,0.7229 0.09681,0.0968 1.91628,0.51781 2.355922,0.54513 0.176599,0.011 0.150372,-0.13295 -0.101769,-0.55849 z m 4.640837,-2.64412 c 1.822025,-2.78406 1.859405,-2.8622 1.291024,-2.69873 -0.649115,0.18669 -3.165872,1.39585 -3.995785,1.91975 l -0.739935,0.46711 0.833164,1.32276 c 0.458242,0.72752 0.8894,1.32317 0.958132,1.32366 0.06873,5.3e-4 0.812763,-1.05006 1.6534,-2.33455 z m -8.229566,0.33451 c 0.68625,-0.66395 1.247727,-1.27791 1.247727,-1.36436 0,-0.0865 -0.24659,-0.55794 -0.547978,-1.04776 -0.446398,-0.72549 -0.594242,-0.85219 -0.797539,-0.68347 -0.535227,0.4442 -2.005871,2.85591 -2.005871,3.28943 0,0.45657 0.474699,1.15293 0.723771,1.06173 0.07269,-0.0266 0.693639,-0.59162 1.37989,-1.25557 z m 4.355188,-3.40036 c 0.433968,-0.25432 0.7598,-0.49163 0.724075,-0.52736 -0.09309,-0.0931 -2.319493,-0.39236 -2.396448,-0.32212 -0.07826,0.0714 0.675203,1.31189 0.796847,1.31189 0.04757,0 0.44156,-0.20809 0.875526,-0.46241 z m 4.300873,-3.79132 c -0.533577,-0.48789 -1.390769,-1.17297 -1.904872,-1.52241 l -0.93473,-0.63535 -1.229602,1.22018 c -1.151678,1.14285 -1.204223,1.22825 -0.829156,1.34755 0.473355,0.15056 3.515889,0.4365 4.89836,0.46035 l 0.970138,0.0167 z m 9.128124,0.34185 c 0.509323,-0.11066 0.926042,-0.25118 0.926042,-0.31226 0,-0.14486 -1.813766,-1.24392 -2.052828,-1.24392 -0.100981,0 -0.271434,0.17859 -0.378785,0.39687 -0.107352,0.21829 -0.374036,0.66752 -0.592634,0.99831 l -0.397451,0.60143 0.784808,-0.11961 c 0.431643,-0.0658 1.201525,-0.21015 1.710848,-0.32082 z m -4.322332,-1.48365 0.837043,-1.33079 -1.454404,-0.67141 c -0.799922,-0.36928 -2.013673,-0.90918 -2.697226,-1.19978 l -1.24282,-0.52836 -0.521069,0.42888 -0.521066,0.42889 0.705555,0.56217 c 0.388056,0.3092 1.419931,1.25562 2.293056,2.10316 0.873125,0.84755 1.627187,1.54032 1.675694,1.53951 0.04851,-8.8e-4 0.464864,-0.60034 0.925237,-1.33227 z m -16.85041,-1.30364 c -1.043367,-1.99639 -1.00953,-1.97944 -2.787014,-1.39623 -1.317805,0.43239 -2.101701,0.81218 -2.101701,1.01826 0,0.33169 4.609295,2.08573 5.594271,2.12886 0.117938,0.005 -0.199522,-0.78264 -0.705556,-1.75089 z m 4.915429,-0.11994 c 0.937554,-0.70566 1.259063,-1.04055 1.096854,-1.14249 -0.552162,-0.34702 -4.021832,-0.92101 -4.021832,-0.66534 0,0.37566 1.322125,2.8061 1.526478,2.8061 0.0397,0 0.66902,-0.44922 1.3985,-0.99827 z m 17.35439,-6.92728 c 1.694799,-2.60828 3.11032,-4.82893 3.145602,-4.93478 0.116226,-0.34868 -0.241773,-0.20337 -1.744113,0.7079 -2.292595,1.39062 -9.316284,6.76052 -9.111036,6.96577 0.132428,0.13243 4.269879,1.98685 4.451706,1.99527 0.09701,0.005 1.563042,-2.12587 3.257841,-4.73416 z m -13.223308,3.72728 c 0.391112,-0.3167 0.385681,-0.32072 -1.70025,-1.25584 -1.150939,-0.51597 -3.466942,-1.63754 -5.146676,-2.49238 l -3.05406,-1.55426 0.116658,0.56114 c 0.06416,0.30863 0.370329,1.19614 0.68037,1.97225 l 0.563711,1.41111 1.844525,0.12137 c 1.933418,0.12721 3.944676,0.57403 5.284106,1.17391 0.993052,0.44476 0.942563,0.44251 1.411616,0.0627 z"
       id="path847" />
  </g>
</svg>
