<?xml version="1.0" encoding="UTF-8" standalone="no"?>
<svg
   xmlns:dc="http://purl.org/dc/elements/1.1/"
   xmlns:cc="http://creativecommons.org/ns#"
   xmlns:rdf="http://www.w3.org/1999/02/22-rdf-syntax-ns#"
   xmlns:svg="http://www.w3.org/2000/svg"
   xmlns="http://www.w3.org/2000/svg"
   xmlns:sodipodi="http://sodipodi.sourceforge.net/DTD/sodipodi-0.dtd"
   xmlns:inkscape="http://www.inkscape.org/namespaces/inkscape"
   width="63.87709mm"
   height="63.843071mm"
   viewBox="0 0 63.877091 63.843071"
   version="1.1"
   id="svg8"
   inkscape:version="1.0.2 (e86c8708, 2021-01-15)"
   sodipodi:docname="art.svg">
  <defs
     id="defs2" />
  <sodipodi:namedview
     id="base"
     pagecolor="#ffffff"
     bordercolor="#666666"
     borderopacity="1.0"
     inkscape:pageopacity="0.0"
     inkscape:pageshadow="2"
     inkscape:zoom="0.35"
     inkscape:cx="570.61644"
     inkscape:cy="-39.142867"
     inkscape:document-units="mm"
     inkscape:current-layer="layer1"
     inkscape:document-rotation="0"
     showgrid="false"
     inkscape:window-width="1252"
     inkscape:window-height="847"
     inkscape:window-x="0"
     inkscape:window-y="25"
     inkscape:window-maximized="0" />
  <metadata
     id="metadata5">
    <rdf:RDF>
      <cc:Work
         rdf:about="">
        <dc:format>image/svg+xml</dc:format>
        <dc:type
           rdf:resource="http://purl.org/dc/dcmitype/StillImage" />
        <dc:title></dc:title>
      </cc:Work>
    </rdf:RDF>
  </metadata>
  <g
     inkscape:label="Layer 1"
     inkscape:groupmode="layer"
     id="layer1"
     transform="translate(45.142263,-158.52322)">
    <path
       style="fill:#000000;stroke-width:0.176389"
       d="m -29.102219,214.70359 c -10.65933,-5.33842 -15.39389,-7.79665 -15.65451,-8.12797 -0.90927,-1.15595 -0.10756,-2.89685 1.33403,-2.89685 0.53761,0 3.71743,1.51545 15.49169,7.38309 l 14.81524,7.38308 14.7721604,-7.38308 c 11.2545596,-5.62501 14.9234096,-7.38309 15.4073496,-7.38309 1.37194,0 2.16229,1.78164 1.28507,2.89685 -0.53641,0.68193 -30.79548,15.80422 -31.59647,15.79066 -0.39089,-0.007 -5.44227,-2.448 -15.85456,-7.66269 z m -0.006,-15.08409 c -9.78521,-4.90054 -15.56567,-7.89066 -15.74271,-8.14342 -0.39063,-0.55771 -0.35402,-1.59005 0.0758,-2.13645 0.19554,-0.24859 0.64704,-0.54819 1.00333,-0.66578 0.64707,-0.21355 0.66453,-0.20543 15.60766,7.26143 l 14.95986,7.47523 14.9598604,-7.47523 c 14.9431296,-7.46686 14.9605896,-7.47498 15.6076596,-7.26143 1.28845,0.42523 1.78507,1.8919 0.98501,2.90902 -0.48078,0.6112 -30.8062,15.80482 -31.51649,15.79036 -0.26236,-0.005 -7.43534,-3.49452 -15.93996,-7.75373 z m 15.37475,-7.40068 c -0.24253,-0.0726 -7.28024,-3.55302 -15.63934,-7.73422 -9.62367,-4.81373 -15.30098,-7.74867 -15.47812,-8.00158 -0.33234,-0.47449 -0.36231,-1.35786 -0.068,-2.00386 0.17524,-0.38461 2.88367,-1.80133 15.69629,-8.21038 10.1806,-5.09248 15.66735,-7.74556 16.01831,-7.74556 0.35096,0 5.8377104,2.65308 16.0183104,7.74556 12.8126196,6.40905 15.5210496,7.82577 15.6962896,8.21038 0.29434,0.646 0.26437,1.52937 -0.068,2.00386 -0.28129,0.4016 -30.39325,15.5787 -31.29385,15.7728 -0.24254,0.0523 -0.63941,0.0356 -0.88195,-0.037 z M -0.32743857,181.8945 c 7.08175997,-3.54113 12.87591957,-6.4779 12.87591957,-6.52615 0,-0.0482 -5.7745396,-2.9742 -12.83229957,-6.50214 l -12.83229043,-6.41442 -12.87639,6.42238 c -7.08201,3.53231 -12.86443,6.47417 -12.84983,6.53746 0.0196,0.0849 25.33324,12.85483 25.59441,12.91162 0.0245,0.005 5.8387304,-2.88761 12.92048043,-6.42875 z"
       id="path847" />
  </g>
</svg>
