<?xml version="1.0" encoding="UTF-8" standalone="no"?>
<svg
   xmlns:dc="http://purl.org/dc/elements/1.1/"
   xmlns:cc="http://creativecommons.org/ns#"
   xmlns:rdf="http://www.w3.org/1999/02/22-rdf-syntax-ns#"
   xmlns:svg="http://www.w3.org/2000/svg"
   xmlns="http://www.w3.org/2000/svg"
   xmlns:sodipodi="http://sodipodi.sourceforge.net/DTD/sodipodi-0.dtd"
   xmlns:inkscape="http://www.inkscape.org/namespaces/inkscape"
   width="90.241478mm"
   height="76.199997mm"
   viewBox="0 0 90.241478 76.199997"
   version="1.1"
   id="svg8"
   inkscape:version="1.0.2 (e86c8708, 2021-01-15)"
   sodipodi:docname="art.svg">
  <defs
     id="defs2" />
  <sodipodi:namedview
     id="base"
     pagecolor="#ffffff"
     bordercolor="#666666"
     borderopacity="1.0"
     inkscape:pageopacity="0.0"
     inkscape:pageshadow="2"
     inkscape:zoom="0.35"
     inkscape:cx="570.77354"
     inkscape:cy="66.000037"
     inkscape:document-units="mm"
     inkscape:current-layer="layer1"
     inkscape:document-rotation="0"
     showgrid="false"
     inkscape:window-width="1252"
     inkscape:window-height="847"
     inkscape:window-x="0"
     inkscape:window-y="25"
     inkscape:window-maximized="0" />
  <metadata
     id="metadata5">
    <rdf:RDF>
      <cc:Work
         rdf:about="">
        <dc:format>image/svg+xml</dc:format>
        <dc:type
           rdf:resource="http://purl.org/dc/dcmitype/StillImage" />
        <dc:title></dc:title>
      </cc:Work>
    </rdf:RDF>
  </metadata>
  <g
     inkscape:label="Layer 1"
     inkscape:groupmode="layer"
     id="layer1"
     transform="translate(45.183832,-130.70416)">
    <path
       style="fill:#000000;stroke-width:0.176389"
       d="m -42.560122,171.02865 v -35.87551 l -0.65245,-0.1224 c -0.78785,-0.1478 -1.231227,-0.44016 -1.664824,-1.09777 -0.660938,-1.00241 -0.212096,-2.37991 0.956093,-2.93425 0.573039,-0.27192 3.1788,-0.29456 33.904936,-0.29456 30.02402,0 33.34193,0.0274 33.87377,0.27978 0.79002,0.37488 1.19822,1.04571 1.19822,1.96911 0,0.6202 -0.10653,0.87036 -0.57761,1.35639 -0.33146,0.34199 -0.83256,0.64376 -1.17592,0.70818 l -0.59833,0.11225 v 6.315 6.31501 l 2.42133,1.29077 c 1.33172,0.70992 3.56001,1.99098 4.95175,2.84679 10.58584,6.5095 16.19192,13.136 14.76012,17.44676 -1.47469,4.43986 -9.09551,5.04021 -20.36931,1.60462 l -1.67569,-0.51065 -0.0449,18.23299 -0.0449,18.233 H -9.9289971 -42.560122 Z m 61.912505,15.36095 v -17.16316 l -2.59964,-1.04751 c -3.01361,-1.21432 -8.6256901,-3.93671 -11.4244501,-5.54194 -4.84615004,-2.7795 -9.75505,-6.35264 -12.60998,-9.17867 -2.0906,-2.06944 -3.3295899,-3.70458 -4.2504299,-5.60948 -0.38933,-0.80538 -0.82482,-1.50922 -0.96775,-1.56406 -0.14294,-0.0548 -0.45622,-0.43475 -0.69618,-0.84422 -0.334757,-0.57122 -0.436297,-0.99425 -0.436297,-1.81769 0,-1.06026 -0.01,-1.08174 -0.827112,-1.7802 -0.454912,-0.38885 -1.268506,-0.9288 -1.807986,-1.19989 -0.830007,-0.41709 -1.201775,-0.49358 -2.417071,-0.49736 -2.395607,-0.007 -2.163742,-1.21574 -2.219983,11.5689 l -0.04799,10.90837 -0.469034,0.46895 c -0.657602,0.65749 -1.755681,0.65751 -2.413321,4e-5 l -0.469034,-0.46891 -0.09182,-9.82979 c -0.0505,-5.40639 -0.11003,-9.38331 -0.132292,-8.83761 -0.06164,1.511 -0.218248,2.05879 -0.751912,2.63008 -0.710763,0.76088 -1.461516,0.70314 -3.521896,-0.27088 -1.735063,-0.82022 -2.382634,-0.95029 -2.854152,-0.57326 -0.728508,0.58252 -0.751548,0.9525 -0.846771,13.59765 l -0.09144,12.14245 -0.419179,0.3393 c -0.880047,0.71236 -1.920112,0.60613 -2.568699,-0.26236 -0.3572,-0.47831 -0.364361,-0.6871 -0.412517,-12.02742 -0.03799,-8.94604 -0.09747,-11.54133 -0.264583,-11.54363 -0.118568,-0.002 -0.870421,-0.26855 -1.670786,-0.59316 l -1.455208,-0.5902 v 28.37441 28.37442 h 29.368753 29.36875 z m 20.26959,-16.71673 c 0.4863,-0.10429 1.14505,-0.3649 1.46389,-0.57912 0.49908,-0.33532 0.58719,-0.50537 0.63352,-1.22267 0.20448,-3.16612 -7.0051,-9.74989 -16.48555,-15.05455 -1.27635,-0.71417 -2.36776,-1.29848 -2.42535,-1.29848 -0.0576,0 -0.10472,3.4795 -0.10472,7.73223 v 7.73223 l 2.07257,0.63894 c 3.29754,1.01658 7.30266,1.92715 9.30452,2.11539 1.58976,0.14949 4.71396,0.11342 5.54112,-0.064 z m -20.26959,-19.83052 v -15.7868 l -12.6559101,0.002 -12.6559,0.002 -2.1519,3.11487 -2.1518899,3.11486 0.8791399,0.29762 c 0.94414,0.31962 1.648,0.87511 2.00511,1.58244 0.6337,1.25519 0.41163,2.81588 -0.54499,3.8302 -0.32621,0.34588 -0.59311,0.66663 -0.59311,0.71277 0,0.36383 1.9421,2.85765 3.2228,4.13835 3.91466,3.91467 9.88329,7.9263 17.1501201,11.52692 3.31469,1.64239 6.8492,3.21601 7.27604,3.2394 0.17484,0.01 0.22049,-3.25642 0.22049,-15.77472 z"
       id="path847" />
  </g>
</svg>
