<?xml version="1.0" encoding="UTF-8" standalone="no"?>
<svg
   xmlns:dc="http://purl.org/dc/elements/1.1/"
   xmlns:cc="http://creativecommons.org/ns#"
   xmlns:rdf="http://www.w3.org/1999/02/22-rdf-syntax-ns#"
   xmlns:svg="http://www.w3.org/2000/svg"
   xmlns="http://www.w3.org/2000/svg"
   xmlns:sodipodi="http://sodipodi.sourceforge.net/DTD/sodipodi-0.dtd"
   xmlns:inkscape="http://www.inkscape.org/namespaces/inkscape"
   width="90.311111mm"
   height="90.311104mm"
   viewBox="0 0 90.31111 90.311103"
   version="1.1"
   id="svg8"
   inkscape:version="1.0.2 (e86c8708, 2021-01-15)"
   sodipodi:docname="snowflake.svg">
  <defs
     id="defs2" />
  <sodipodi:namedview
     id="base"
     pagecolor="#ffffff"
     bordercolor="#666666"
     borderopacity="1.0"
     inkscape:pageopacity="0.0"
     inkscape:pageshadow="2"
     inkscape:zoom="0.35"
     inkscape:cx="555.23811"
     inkscape:cy="427.14283"
     inkscape:document-units="mm"
     inkscape:current-layer="layer1"
     inkscape:document-rotation="0"
     showgrid="false"
     inkscape:window-width="1252"
     inkscape:window-height="847"
     inkscape:window-x="31"
     inkscape:window-y="25"
     inkscape:window-maximized="0" />
  <metadata
     id="metadata5">
    <rdf:RDF>
      <cc:Work
         rdf:about="">
        <dc:format>image/svg+xml</dc:format>
        <dc:type
           rdf:resource="http://purl.org/dc/dcmitype/StillImage" />
        <dc:title></dc:title>
      </cc:Work>
    </rdf:RDF>
  </metadata>
  <g
     inkscape:label="Layer 1"
     inkscape:groupmode="layer"
     id="layer1"
     transform="translate(41.073413,-35.151793)">
    <path
       style="fill:#000000;stroke-width:0.176389"
       d="m -3.8553619,122.81707 v -2.64584 h 2.64584 2.64583 v -5.29166 -5.29167 h -2.64583 -2.64584 v 2.64583 2.64584 h -2.64583 -2.64583 v -2.64584 -2.64583 h 2.64583 2.64583 v -2.64583 -2.64584 h 2.64584 2.64583 v -5.379861 -5.37986 h 2.64583 2.64584 v 5.37986 5.379861 h 2.64583 2.6458299 v 2.64584 2.64583 h 2.64584 2.64583 v 2.64583 2.64584 h -2.64583 -2.64584 v -2.64584 -2.64583 h -2.6458299 -2.64583 v 5.29167 5.29166 h 2.64583 2.6458299 v 2.64584 2.64583 h -2.6458299 -2.64583 v -2.64583 -2.64584 h -2.64584 -2.64583 v 2.64584 2.64583 h -2.64583 -2.64584 z m -21.2254601,-8.0551 c -0.0647,-0.0647 -0.11759,-1.25318 -0.11759,-2.64111 v -2.52353 l -2.60174,-0.0488 -2.60173,-0.0488 -0.0488,-2.60173 -0.0488,-2.60174 h 5.29638 5.29638 v 5.29167 5.29167 h -2.52824 c -1.39053,0 -2.58115,-0.0529 -2.64583,-0.1176 z m 53.15185,-5.16936 v -5.29638 h 5.29638 5.29638 l -0.0488,2.60174 -0.0488,2.60173 -2.59705,0.0488 -2.59705,0.0488 -0.0488,2.59704 -0.0488,2.59705 -2.60173,0.0488 -2.60174,0.0488 z m -47.89851,-5.52062 c -0.0493,-0.12855 -0.0675,-1.34114 -0.0404,-2.69467 l 0.0493,-2.460951 h 2.64583 2.64584 v 2.645841 2.64583 l -2.60546,0.0488 c -2.03523,0.0382 -2.62508,-0.002 -2.69514,-0.18488 z m 42.50972,0 c -0.0493,-0.12855 -0.0675,-1.34114 -0.0404,-2.69467 l 0.0493,-2.460951 h 2.64583 2.64584 v 2.645841 2.64583 l -2.60546,0.0488 c -2.03523,0.0382 -2.62508,-0.002 -2.69514,-0.18488 z m -37.12093,-7.889651 v -2.64583 h 2.64583 2.6458401 v -2.645831 -2.645834 h 2.64583 2.64583 v -7.937499 -7.937499 h -2.64583 -2.64583 v -2.645834 -2.645833 h -2.6458401 -2.64583 v -2.645833 -2.645833 h 2.64583 2.6458401 v 2.645833 2.645833 h 2.64583 2.64583 v 2.645833 2.645834 h 7.9375 7.9374999 v -2.645834 -2.645833 h 2.64584 2.64583 v -2.645833 -2.645833 h 2.64583 2.64583 v 2.645833 2.645833 h -2.64583 -2.64583 v 2.645833 2.645834 h -2.64583 -2.64584 v 7.937499 7.937499 h 2.64584 2.64583 v 2.645834 2.645831 h 2.64583 2.64583 v 2.64583 2.64584 h -2.64583 -2.64583 v -2.64584 -2.64583 h -2.64583 -2.64584 v -2.645831 -2.645834 h -7.9374999 -7.9375 v 2.645834 2.645831 h -2.64583 -2.64583 v 2.64583 2.64584 h -2.6458401 -2.64583 z m -16.05139,-5.291661 v -2.645834 h 2.64583 2.64584 v -2.645833 -2.645833 h -5.29167 -5.291665 v 2.645833 2.645833 h -2.645833 -2.645833 v -2.645833 -2.645833 h 2.645833 2.645833 v -2.645833 -2.645833 h -2.645833 -2.645833 v -2.645833 -2.645833 h 2.645833 2.645833 v 2.645833 2.645833 h 5.291665 5.29167 v -2.645833 -2.645833 h -2.64584 -2.64583 v -2.645834 -2.645833 h 2.64583 2.64584 v 2.645833 2.645834 h 2.64583 2.64583 v 2.645833 2.645833 h 5.37987 5.3798601 v 2.645833 2.645833 h -5.3798601 -5.37987 v 2.645833 2.645833 h -2.64583 -2.64583 v 2.645834 2.645831 h -2.64584 -2.64583 z m 63.85278,0 v -2.645834 h -2.64584 -2.64583 v -2.645833 -2.645833 h -5.37986 -5.37986 v -2.645833 -2.645833 h 5.37986 5.37986 v -2.645833 -2.645833 h 2.64583 2.64584 v -2.645834 -2.645833 h 2.64583 2.64583 v 2.645833 2.645834 h -2.64583 -2.64583 v 2.645833 2.645833 h 5.29166 5.29167 v -2.645833 -2.645833 h 2.64583 2.64584 v 2.645833 2.645833 h -2.64584 -2.64583 v 2.645833 2.645833 h 2.64583 2.64584 v 2.645833 2.645833 h -2.64584 -2.64583 v -2.645833 -2.645833 h -5.29167 -5.29166 v 2.645833 2.645833 h 2.64583 2.64583 v 2.645834 2.645831 h -2.64583 -2.64583 z M 1.4363081,61.698319 v -5.379861 h -2.64583 -2.64584 v -2.645833 -2.645833 h -2.64583 -2.64583 v -2.645834 -2.645833 h 2.64583 2.64583 v 2.645833 2.645834 h 2.64584 2.64583 v -5.291667 -5.291666 h -2.64583 -2.64584 v -2.645833 -2.645833 h 2.64584 2.64583 v 2.645833 2.645833 h 2.64583 2.64584 v -2.645833 -2.645833 h 2.64583 2.6458299 v 2.645833 2.645833 h -2.6458299 -2.64583 v 5.291666 5.291667 h 2.64583 2.6458299 v -2.645834 -2.645833 h 2.64584 2.64583 v 2.645833 2.645834 h -2.64583 -2.64584 v 2.645833 2.645833 h -2.6458299 -2.64583 v 5.379861 5.37986 h -2.64584 -2.64583 z M -19.827482,61.56227 c -0.0493,-0.128545 -0.0675,-1.341145 -0.0404,-2.694668 l 0.0493,-2.46095 h 2.64583 2.64584 v 2.645833 2.645834 l -2.60546,0.04883 c -2.03523,0.03815 -2.62508,-0.0023 -2.69514,-0.184882 z m 42.50972,0 c -0.0493,-0.128545 -0.0675,-1.341145 -0.0404,-2.694668 l 0.0493,-2.46095 h 2.64583 2.64584 v 2.645833 2.645834 l -2.60546,0.04883 c -2.03523,0.03815 -2.62508,-0.0023 -2.69514,-0.184882 z m -53.13294,-7.845548 0.0488,-2.601736 2.59704,-0.04879 2.59705,-0.04879 0.0488,-2.597047 0.0488,-2.597047 2.60174,-0.04881 2.60173,-0.04881 v 5.296381 5.296382 h -5.29638 -5.29638 z m 58.52173,-2.694646 v -5.296381 l 2.60174,0.04881 2.60173,0.04881 0.0488,2.597047 0.0488,2.597047 2.59705,0.04879 2.59705,0.04879 0.0488,2.601736 0.0488,2.601736 h -5.29638 -5.29638 z"
       id="path911" />
  </g>
</svg>
