<?xml version="1.0" encoding="UTF-8" standalone="no"?>
<svg
   xmlns:dc="http://purl.org/dc/elements/1.1/"
   xmlns:cc="http://creativecommons.org/ns#"
   xmlns:rdf="http://www.w3.org/1999/02/22-rdf-syntax-ns#"
   xmlns:svg="http://www.w3.org/2000/svg"
   xmlns="http://www.w3.org/2000/svg"
   xmlns:sodipodi="http://sodipodi.sourceforge.net/DTD/sodipodi-0.dtd"
   xmlns:inkscape="http://www.inkscape.org/namespaces/inkscape"
   width="71.084717mm"
   height="83.608337mm"
   viewBox="0 0 71.084717 83.608337"
   version="1.1"
   id="svg8"
   inkscape:version="1.0.2 (e86c8708, 2021-01-15)"
   sodipodi:docname="doc.svg">
  <defs
     id="defs2" />
  <sodipodi:namedview
     id="base"
     pagecolor="#ffffff"
     bordercolor="#666666"
     borderopacity="1.0"
     inkscape:pageopacity="0.0"
     inkscape:pageshadow="2"
     inkscape:zoom="0.35"
     inkscape:cx="726.61904"
     inkscape:cy="58.666654"
     inkscape:document-units="mm"
     inkscape:current-layer="layer1"
     inkscape:document-rotation="0"
     showgrid="false"
     inkscape:window-width="1252"
     inkscape:window-height="847"
     inkscape:window-x="0"
     inkscape:window-y="25"
     inkscape:window-maximized="0" />
  <metadata
     id="metadata5">
    <rdf:RDF>
      <cc:Work
         rdf:about="">
        <dc:format>image/svg+xml</dc:format>
        <dc:type
           rdf:resource="http://purl.org/dc/dcmitype/StillImage" />
        <dc:title></dc:title>
      </cc:Work>
    </rdf:RDF>
  </metadata>
  <g
     inkscape:label="Layer 1"
     inkscape:groupmode="layer"
     id="layer1"
     transform="translate(86.417955,-132.64445)">
    <path
       style="fill:#000000;stroke-width:0.176389"
       d="m -86.001539,215.91559 -0.416416,-0.33719 v -34.83387 c 0,-34.00722 0.008,-34.84268 0.336019,-35.20517 0.326279,-0.36053 0.478375,-0.3713 5.247569,-0.3713 h 4.911551 v -5.82885 -5.82885 l 0.432954,-0.43295 0.432955,-0.43296 h 29.44542 c 28.728972,0 29.455552,0.008 29.861842,0.3372 l 0.41641,0.33719 v 34.83387 c 0,34.00722 -0.008,34.84268 -0.33602,35.20517 -0.32628,0.36053 -0.47837,0.37129 -5.24757,0.37129 h -4.91155 v 5.82886 5.82885 l -0.43295,0.43295 -0.43296,0.43296 h -29.445417 c -28.728968,0 -29.455553,-0.008 -29.861837,-0.3372 z m 57.703724,-35.20516 v -33.07292 h -27.869446 -27.869444 v 33.07292 33.07291 h 27.869444 27.869446 z m -41.350332,26.2696 c -0.749125,-0.74912 -0.390031,-1.91609 0.647259,-2.10342 0.316029,-0.0571 6.316479,-0.0806 13.334332,-0.0523 l 12.759732,0.0514 0.337142,0.41642 c 0.435141,0.53745 0.429031,1.16739 -0.01563,1.61205 -0.3465,0.3465 -0.587962,0.35278 -13.569344,0.35278 -11.774514,0 -13.246783,-0.0302 -13.493486,-0.27692 z m -7.68578,-6.42586 c -0.444683,-0.44468 -0.450773,-1.07462 -0.01558,-1.61205 l 0.337192,-0.41642 h 20.845058 20.845058 l 0.337192,0.41642 c 0.435189,0.53743 0.4291,1.16737 -0.01557,1.61205 -0.348791,0.3488 -0.587962,0.35278 -21.166666,0.35278 -20.578704,0 -20.817875,-0.004 -21.166667,-0.35278 z m 0,-6.35 c -0.444683,-0.44468 -0.450773,-1.07462 -0.01558,-1.61205 l 0.337192,-0.41642 h 20.845058 20.845058 l 0.337192,0.41642 c 0.435189,0.53743 0.4291,1.16737 -0.01557,1.61205 -0.348791,0.3488 -0.587962,0.35278 -21.166666,0.35278 -20.578704,0 -20.817875,-0.004 -21.166667,-0.35278 z m 0,-6.34999 c -0.444683,-0.44469 -0.450773,-1.07463 -0.01558,-1.61206 l 0.337192,-0.41642 h 20.845058 20.845058 l 0.337192,0.41642 c 0.435189,0.53743 0.4291,1.16737 -0.01557,1.61206 -0.348791,0.34879 -0.587962,0.35277 -21.166666,0.35277 -20.578704,0 -20.817875,-0.004 -21.166667,-0.35277 z m 0,-6.35 c -0.444683,-0.44469 -0.450773,-1.07463 -0.01558,-1.61206 l 0.337192,-0.41642 h 20.845058 20.845058 l 0.337192,0.41642 c 0.435189,0.53743 0.4291,1.16737 -0.01557,1.61206 -0.348791,0.34879 -0.587962,0.35277 -21.166666,0.35277 -20.578704,0 -20.817875,-0.004 -21.166667,-0.35277 z m 0,-6.35 c -0.444683,-0.44469 -0.450773,-1.07463 -0.01558,-1.61206 l 0.337192,-0.41642 h 20.845058 20.845058 l 0.337192,0.41642 c 0.435189,0.53743 0.4291,1.16737 -0.01557,1.61206 -0.348791,0.34879 -0.587962,0.35277 -21.166666,0.35277 -20.578704,0 -20.817875,-0.004 -21.166667,-0.35277 z m 0,-6.35 c -0.444683,-0.44469 -0.450773,-1.07463 -0.01558,-1.61206 l 0.337192,-0.41642 h 20.845058 20.845058 l 0.337192,0.41642 c 0.435189,0.53743 0.4291,1.16737 -0.01557,1.61206 -0.348791,0.34879 -0.587962,0.35277 -21.166666,0.35277 -20.578704,0 -20.817875,-0.004 -21.166667,-0.35277 z m 25.576388,-12.7 c -0.444683,-0.44469 -0.450772,-1.07463 -0.01557,-1.61206 l 0.337192,-0.41642 h 8.056864 8.056864 l 0.337192,0.41642 c 0.435189,0.53743 0.4291,1.16737 -0.01557,1.61206 -0.342439,0.34243 -0.587962,0.35277 -8.378472,0.35277 -7.79051,0 -8.036033,-0.0103 -8.378472,-0.35277 z m 34.043054,12.08263 V 135.1139 h -27.869443 -27.869444 v 5.02708 5.02708 h 23.44692 23.446917 l 0.36558,0.46476 0.36558,0.46476 v 27.58108 27.58107 h 4.05695 4.05694 z"
       id="path847" />
  </g>
</svg>
