<?xml version="1.0" encoding="UTF-8" standalone="no"?>
<svg
   xmlns:dc="http://purl.org/dc/elements/1.1/"
   xmlns:cc="http://creativecommons.org/ns#"
   xmlns:rdf="http://www.w3.org/1999/02/22-rdf-syntax-ns#"
   xmlns:svg="http://www.w3.org/2000/svg"
   xmlns="http://www.w3.org/2000/svg"
   xmlns:sodipodi="http://sodipodi.sourceforge.net/DTD/sodipodi-0.dtd"
   xmlns:inkscape="http://www.inkscape.org/namespaces/inkscape"
   width="51.858341mm"
   height="63.147221mm"
   viewBox="0 0 51.858341 63.14722"
   version="1.1"
   id="svg8"
   inkscape:version="1.0.2 (e86c8708, 2021-01-15)"
   sodipodi:docname="doc.svg">
  <defs
     id="defs2" />
  <sodipodi:namedview
     id="base"
     pagecolor="#ffffff"
     bordercolor="#666666"
     borderopacity="1.0"
     inkscape:pageopacity="0.0"
     inkscape:pageshadow="2"
     inkscape:zoom="0.35"
     inkscape:cx="584.66666"
     inkscape:cy="350.9524"
     inkscape:document-units="mm"
     inkscape:current-layer="layer1"
     inkscape:document-rotation="0"
     showgrid="false"
     inkscape:window-width="1252"
     inkscape:window-height="847"
     inkscape:window-x="0"
     inkscape:window-y="25"
     inkscape:window-maximized="0" />
  <metadata
     id="metadata5">
    <rdf:RDF>
      <cc:Work
         rdf:about="">
        <dc:format>image/svg+xml</dc:format>
        <dc:type
           rdf:resource="http://purl.org/dc/dcmitype/StillImage" />
        <dc:title></dc:title>
      </cc:Work>
    </rdf:RDF>
  </metadata>
  <g
     inkscape:label="Layer 1"
     inkscape:groupmode="layer"
     id="layer1"
     transform="translate(194.75853,-74.20932)">
    <path
       style="fill:#000000;stroke-width:0.176389"
       d="m -188.9377,134.53432 v -2.82223 h -2.91042 -2.91041 V 105.78293 79.853764 h 2.91041 2.91042 V 77.031542 74.20932 h 17.28612 17.28611 v 2.822222 2.822222 h 2.82222 2.82222 v 2.910417 2.910421 h 2.91042 2.91042 v 23.018738 23.01875 h -2.91042 -2.91042 v 2.82223 2.82222 h -20.10833 -20.10834 z m 40.21667,-20.10834 V 97.139872 h -8.64305 -8.64306 v -8.64305 -8.643058 h -11.46528 -11.46528 v 25.929166 25.92916 h 20.10834 20.10833 z m 0,-25.937388 v -2.81399 h -2.82222 -2.82222 v -2.910421 -2.910417 h -2.91042 -2.91041 v 5.728268 5.72827 l 2.77812,0.0485 c 1.52797,0.0267 4.10766,0.0249 5.73264,-0.004 l 2.95451,-0.0523 v -2.81399 z"
       id="path915" />
  </g>
</svg>
