<?xml version="1.0" encoding="UTF-8" standalone="no"?>
<svg
   xmlns:dc="http://purl.org/dc/elements/1.1/"
   xmlns:cc="http://creativecommons.org/ns#"
   xmlns:rdf="http://www.w3.org/1999/02/22-rdf-syntax-ns#"
   xmlns:svg="http://www.w3.org/2000/svg"
   xmlns="http://www.w3.org/2000/svg"
   xmlns:sodipodi="http://sodipodi.sourceforge.net/DTD/sodipodi-0.dtd"
   xmlns:inkscape="http://www.inkscape.org/namespaces/inkscape"
   width="69.14444mm"
   height="51.858334mm"
   viewBox="0 0 69.144439 51.858333"
   version="1.1"
   id="svg8"
   inkscape:version="1.0.2 (e86c8708, 2021-01-15)"
   sodipodi:docname="mail.svg">
  <defs
     id="defs2" />
  <sodipodi:namedview
     id="base"
     pagecolor="#ffffff"
     bordercolor="#666666"
     borderopacity="1.0"
     inkscape:pageopacity="0.0"
     inkscape:pageshadow="2"
     inkscape:zoom="0.35"
     inkscape:cx="915.90475"
     inkscape:cy="528.76191"
     inkscape:document-units="mm"
     inkscape:current-layer="layer1"
     inkscape:document-rotation="0"
     showgrid="false"
     inkscape:window-width="1252"
     inkscape:window-height="847"
     inkscape:window-x="0"
     inkscape:window-y="25"
     inkscape:window-maximized="0" />
  <metadata
     id="metadata5">
    <rdf:RDF>
      <cc:Work
         rdf:about="">
        <dc:format>image/svg+xml</dc:format>
        <dc:type
           rdf:resource="http://purl.org/dc/dcmitype/StillImage" />
        <dc:title></dc:title>
      </cc:Work>
    </rdf:RDF>
  </metadata>
  <g
     inkscape:label="Layer 1"
     inkscape:groupmode="layer"
     id="layer1"
     transform="translate(136.4998,-8.2650765)">
    <path
       style="fill:#000000;stroke-width:0.176389"
       d="m -130.67897,57.212993 v -2.910417 h -2.91042 -2.91041 V 34.194243 14.08591 h 2.91041 2.91042 V 11.175493 8.2650765 h 28.75139 28.75139 v 2.9104165 2.910417 h 2.910417 2.910416 v 20.108333 20.108333 h -2.910416 -2.910417 v 2.910417 2.910417 h -28.75139 -28.75139 z m 57.50278,-23.01875 V 14.08591 h -28.75139 -28.75139 v 20.108333 20.108333 h 28.75139 28.75139 z m -34.5325,5.776736 0.0485,-2.866319 h 5.73264 5.732639 l 0.04847,2.866319 0.04847,2.86632 h -5.829579 -5.82957 z m -5.68417,-5.776736 v -2.822222 h -2.91041 -2.91042 v -2.910417 -2.910417 h -2.82222 -2.82223 v -2.910416 -2.910417 h 2.82223 2.82222 v 2.910417 2.910416 h 2.91042 2.91041 v 2.910417 2.910417 h 2.82222 2.82223 v 2.822222 2.822222 h -2.82223 -2.82222 z m 17.286113,0 v -2.822222 h 2.822223 2.822222 v -2.910417 -2.910417 h 2.910417 2.910417 v -2.910416 -2.910417 h 2.822222 2.822222 v 2.910417 2.910416 h -2.822222 -2.822222 v 2.910417 2.910417 h -2.910417 -2.910417 v 2.822222 2.822222 h -2.822222 -2.822223 z"
       id="path881" />
  </g>
</svg>
