<?xml version="1.0" encoding="UTF-8" standalone="no"?>
<svg
   xmlns:dc="http://purl.org/dc/elements/1.1/"
   xmlns:cc="http://creativecommons.org/ns#"
   xmlns:rdf="http://www.w3.org/1999/02/22-rdf-syntax-ns#"
   xmlns:svg="http://www.w3.org/2000/svg"
   xmlns="http://www.w3.org/2000/svg"
   xmlns:sodipodi="http://sodipodi.sourceforge.net/DTD/sodipodi-0.dtd"
   xmlns:inkscape="http://www.inkscape.org/namespaces/inkscape"
   width="270.93332mm"
   height="203.2mm"
   viewBox="0 0 270.93332 203.2"
   version="1.1"
   id="svg8"
   inkscape:version="1.0.2 (e86c8708, 2021-01-15)"
   sodipodi:docname="mail.svg">
  <defs
     id="defs2" />
  <sodipodi:namedview
     id="base"
     pagecolor="#ffffff"
     bordercolor="#666666"
     borderopacity="1.0"
     inkscape:pageopacity="0.0"
     inkscape:pageshadow="2"
     inkscape:zoom="0.35"
     inkscape:cx="701.23608"
     inkscape:cy="558.28569"
     inkscape:document-units="mm"
     inkscape:current-layer="layer1"
     inkscape:document-rotation="0"
     showgrid="false"
     inkscape:window-width="1252"
     inkscape:window-height="847"
     inkscape:window-x="0"
     inkscape:window-y="25"
     inkscape:window-maximized="0" />
  <metadata
     id="metadata5">
    <rdf:RDF>
      <cc:Work
         rdf:about="">
        <dc:format>image/svg+xml</dc:format>
        <dc:type
           rdf:resource="http://purl.org/dc/dcmitype/StillImage" />
        <dc:title></dc:title>
      </cc:Work>
    </rdf:RDF>
  </metadata>
  <g
     inkscape:label="Layer 1"
     inkscape:groupmode="layer"
     id="layer1"
     transform="translate(320.67499,-38.251197)">
    <path
       style="fill:#000000;stroke-width:0.264583"
       d="M -320.67499,139.8512 V 38.251197 h 135.46666 135.466655 V 139.8512 241.45119 H -185.20833 -320.67499 Z m 253.999985,4.6302 c 0,-44.02005 -0.0447,-80.036454 -0.0993,-80.036454 -0.0546,0 -26.72492,21.30056 -59.267395,47.334584 l -59.1681,47.33457 -59.16594,-47.33457 c -32.54126,-26.034024 -59.21093,-47.334584 -59.26593,-47.334584 -0.055,0 -0.1,36.016404 -0.1,80.036454 v 80.03646 h 118.53333 118.533325 z m -67.094535,-48.154164 51.253845,-41.010415 -51.346315,-0.06682 c -28.24047,-0.03674 -74.45199,-0.03674 -102.69226,0 l -51.34595,0.06682 51.2798,41.055295 c 28.20389,22.580414 51.35117,41.035104 51.43841,41.010424 0.0872,-0.0247 23.22285,-18.49957 51.41247,-41.055304 z"
       id="path847" />
  </g>
</svg>
